<svg width="36" height="36" viewBox="0 0 36 36" fill="none" xmlns="http://www.w3.org/2000/svg">
<path d="M0 10C0 4.47715 4.47715 0 10 0H26C31.5228 0 36 4.47715 36 10V26C36 31.5228 31.5228 36 26 36H10C4.47715 36 0 31.5228 0 26V10Z" fill="#155DFC"/>
<path d="M11.5749 18.4445C11.5193 18.2948 11.5193 18.1302 11.5749 17.9805C12.116 16.6684 13.0346 15.5465 14.2141 14.7571C15.3936 13.9677 16.7809 13.5462 18.2002 13.5462C19.6195 13.5462 21.0069 13.9677 22.1864 14.7571C23.3659 15.5465 24.2844 16.6684 24.8255 17.9805C24.8811 18.1302 24.8811 18.2948 24.8255 18.4445C24.2844 19.7566 23.3659 20.8785 22.1864 21.6679C21.0069 22.4573 19.6195 22.8787 18.2002 22.8787C16.7809 22.8787 15.3936 22.4573 14.2141 21.6679C13.0346 20.8785 12.116 19.7566 11.5749 18.4445Z" stroke="white" stroke-width="1.33333" stroke-linecap="round" stroke-linejoin="round"/>
<path d="M18.2002 20.2125C19.3048 20.2125 20.2002 19.3171 20.2002 18.2125C20.2002 17.1079 19.3048 16.2125 18.2002 16.2125C17.0956 16.2125 16.2002 17.1079 16.2002 18.2125C16.2002 19.3171 17.0956 20.2125 18.2002 20.2125Z" stroke="white" stroke-width="1.33333" stroke-linecap="round" stroke-linejoin="round"/>
</svg>
