<svg width="36" height="36" viewBox="0 0 36 36" fill="none" xmlns="http://www.w3.org/2000/svg">
<path d="M0 10C0 4.47715 4.47715 0 10 0H26C31.5228 0 36 4.47715 36 10V26C36 31.5228 31.5228 36 26 36H10C4.47715 36 0 31.5228 0 26V10Z" fill="#27272A"/>
<path d="M18 20V12" stroke="#D1D5DC" stroke-width="1.33333" stroke-linecap="round" stroke-linejoin="round"/>
<path d="M24 20V22.6667C24 23.0203 23.8595 23.3594 23.6095 23.6095C23.3594 23.8595 23.0203 24 22.6667 24H13.3333C12.9797 24 12.6406 23.8595 12.3905 23.6095C12.1405 23.3594 12 23.0203 12 22.6667V20" stroke="#D1D5DC" stroke-width="1.33333" stroke-linecap="round" stroke-linejoin="round"/>
<path d="M14.6665 16.6667L17.9998 20L21.3332 16.6667" stroke="#D1D5DC" stroke-width="1.33333" stroke-linecap="round" stroke-linejoin="round"/>
</svg>
