<svg width="16" height="16" viewBox="0 0 16 16" fill="none" xmlns="http://www.w3.org/2000/svg">
<path d="M10 1.33331H4.00002C3.6464 1.33331 3.30726 1.47379 3.05721 1.72384C2.80716 1.97389 2.66669 2.31302 2.66669 2.66665V13.3333C2.66669 13.6869 2.80716 14.0261 3.05721 14.2761C3.30726 14.5262 3.6464 14.6666 4.00002 14.6666H12C12.3536 14.6666 12.6928 14.5262 12.9428 14.2761C13.1929 14.0261 13.3334 13.6869 13.3334 13.3333V4.66665L10 1.33331Z" stroke="white" stroke-width="1.33333" stroke-linecap="round" stroke-linejoin="round"/>
<path d="M9.33331 1.33331V3.99998C9.33331 4.3536 9.47379 4.69274 9.72384 4.94279C9.97389 5.19284 10.313 5.33331 10.6666 5.33331H13.3333" stroke="white" stroke-width="1.33333" stroke-linecap="round" stroke-linejoin="round"/>
<path d="M6.66665 9.33335C7.40303 9.33335 7.99998 8.7364 7.99998 8.00002C7.99998 7.26364 7.40303 6.66669 6.66665 6.66669C5.93027 6.66669 5.33331 7.26364 5.33331 8.00002C5.33331 8.7364 5.93027 9.33335 6.66665 9.33335Z" stroke="white" stroke-width="1.33333" stroke-linecap="round" stroke-linejoin="round"/>
<path d="M13.3333 11.3333L12.4693 10.4693C12.168 10.1681 11.7594 9.99884 11.3333 9.99884C10.9073 9.99884 10.4986 10.1681 10.1973 10.4693L6 14.6667" stroke="white" stroke-width="1.33333" stroke-linecap="round" stroke-linejoin="round"/>
</svg>
