<svg width="64" height="64" viewBox="0 0 64 64" fill="none" xmlns="http://www.w3.org/2000/svg">
<path d="M0 16C0 7.16344 7.16344 0 16 0H48C56.8366 0 64 7.16344 64 16V48C64 56.8366 56.8366 64 48 64H16C7.16344 64 0 56.8366 0 48V16Z" fill="url(#paint0_linear_94_4)"/>
<path d="M45.3332 32H42.0265C41.4438 31.9988 40.8767 32.1884 40.412 32.54C39.9473 32.8915 39.6105 33.3856 39.4532 33.9467L36.3198 45.0933C36.2996 45.1626 36.2575 45.2234 36.1998 45.2667C36.1421 45.3099 36.072 45.3333 35.9998 45.3333C35.9277 45.3333 35.8575 45.3099 35.7998 45.2667C35.7421 45.2234 35.7 45.1626 35.6798 45.0933L28.3198 18.9067C28.2996 18.8374 28.2575 18.7766 28.1998 18.7333C28.1421 18.6901 28.072 18.6667 27.9998 18.6667C27.9277 18.6667 27.8575 18.6901 27.7998 18.7333C27.7421 18.7766 27.7 18.8374 27.6798 18.9067L24.5465 30.0533C24.3898 30.6122 24.055 31.1047 23.593 31.456C23.131 31.8074 22.5669 31.9983 21.9865 32H18.6665" stroke="white" stroke-width="2.66667" stroke-linecap="round" stroke-linejoin="round"/>
<defs>
<linearGradient id="paint0_linear_94_4" x1="0" y1="0" x2="64" y2="64" gradientUnits="userSpaceOnUse">
<stop stop-color="#2B7FFF"/>
<stop offset="1" stop-color="#9810FA"/>
</linearGradient>
</defs>
</svg>
