<svg width="16" height="16" viewBox="0 0 16 16" fill="none" xmlns="http://www.w3.org/2000/svg">
<g clip-path="url(#clip0_1_1196)">
<path d="M6.66199 7.32812V11.3253" stroke="#FF6467" stroke-width="1.33239" stroke-linecap="round" stroke-linejoin="round"/>
<path d="M9.32666 7.32812V11.3253" stroke="#FF6467" stroke-width="1.33239" stroke-linecap="round" stroke-linejoin="round"/>
<path d="M12.6576 3.99719V13.3239C12.6576 13.6773 12.5173 14.0162 12.2674 14.266C12.0175 14.5159 11.6786 14.6563 11.3253 14.6563H4.66332C4.30995 14.6563 3.97105 14.5159 3.72118 14.266C3.47131 14.0162 3.33093 13.6773 3.33093 13.3239V3.99719" stroke="#FF6467" stroke-width="1.33239" stroke-linecap="round" stroke-linejoin="round"/>
<path d="M1.99854 3.99719H13.99" stroke="#FF6467" stroke-width="1.33239" stroke-linecap="round" stroke-linejoin="round"/>
<path d="M5.32959 3.99717V2.66479C5.32959 2.31141 5.46997 1.97252 5.71984 1.72264C5.96971 1.47277 6.30861 1.3324 6.66198 1.3324H9.32675C9.68013 1.3324 10.019 1.47277 10.2689 1.72264C10.5188 1.97252 10.6591 2.31141 10.6591 2.66479V3.99717" stroke="#FF6467" stroke-width="1.33239" stroke-linecap="round" stroke-linejoin="round"/>
</g>
<defs>
<clipPath id="clip0_1_1196">
<rect width="15.9887" height="15.9887" fill="white"/>
</clipPath>
</defs>
</svg>
